HIERARCHY
ROOT Hips
{
	OFFSET 0.000000 0.000000 0.000000
	CHANNELS 6 Xposition Yposition Zposition Zrotation Yrotation Xrotation 
	JOINT LHipJoint
	{
		OFFSET 0.000000 0.000000 0.000000
		CHANNELS 3 Zrotation Yrotation Xrotation
		JOINT LeftUpLeg
		{
			OFFSET 1.363060 -1.794630 0.839290
			CHANNELS 3 Zrotation Yrotation Xrotation
			JOINT LeftLeg
			{
				OFFSET 2.448110 -6.726130 0.000000
				CHANNELS 3 Zrotation Yrotation Xrotation
				JOINT LeftFoot
				{
					OFFSET 2.562200 -7.039590 0.000000
					CHANNELS 3 Zrotation Yrotation Xrotation
					JOINT LeftToeBase
					{
						OFFSET 0.157640 -0.433110 2.322550
						CHANNELS 3 Zrotation Yrotation Xrotation
						End Site
						{
							OFFSET 0.000000 0.000000 0.000000
						}
					}
				}
			}
		}
	}
	JOINT RHipJoint
	{
		OFFSET 0.000000 0.000000 0.000000
		CHANNELS 3 Zrotation Yrotation Xrotation
		JOINT RightUpLeg
		{
			OFFSET -1.305520 -1.794630 0.839290
			CHANNELS 3 Zrotation Yrotation Xrotation
			JOINT RightLeg
			{
				OFFSET -2.542530 -6.985550 0.000000
				CHANNELS 3 Zrotation Yrotation Xrotation
				JOINT RightFoot
				{
					OFFSET -2.568260 -7.056230 0.000000
					CHANNELS 3 Zrotation Yrotation Xrotation
					JOINT RightToeBase
					{
						OFFSET -0.164730 -0.452590 2.363150
						CHANNELS 3 Zrotation Yrotation Xrotation
						End Site
						{
							OFFSET 0.000000 0.000000 0.000000
						}
					}
				}
			}
		}
	}
	JOINT LowerBack
	{
		OFFSET 0.000000 0.000000 0.000000
		CHANNELS 3 Zrotation Yrotation Xrotation
		JOINT Spine
		{
			OFFSET 0.028270 2.035590 -0.193380
			CHANNELS 3 Zrotation Yrotation Xrotation
			JOINT Spine1
			{
				OFFSET 0.056720 2.048850 -0.042750
				CHANNELS 3 Zrotation Yrotation Xrotation
				JOINT Neck
				{
					OFFSET 0.000000 0.000000 0.000000
					CHANNELS 3 Zrotation Yrotation Xrotation
					JOINT Neck1
					{
						OFFSET -0.054170 1.746240 0.172020
						CHANNELS 3 Zrotation Yrotation Xrotation
						JOINT Head
						{
							OFFSET 0.104070 1.761360 -0.123970
							CHANNELS 3 Zrotation Yrotation Xrotation
							End Site
							{
								OFFSET 0.000000 0.000000 0.000000
							}
						}
					}
				}
				JOINT LeftShoulder
				{
					OFFSET 0.000000 0.000000 0.000000
					CHANNELS 3 Zrotation Yrotation Xrotation
					JOINT LeftArm
					{
						OFFSET 3.362410 1.200890 -0.311210
						CHANNELS 3 Zrotation Yrotation Xrotation
						JOINT LeftForeArm
						{
							OFFSET 4.983000 -0.000000 -0.000000
							CHANNELS 3 Zrotation Yrotation Xrotation
							JOINT LeftHand
							{
								OFFSET 3.483560 -0.000000 -0.000000
								CHANNELS 3 Zrotation Yrotation Xrotation
								JOINT LeftFingerBase
								{
									OFFSET 0.000000 0.000000 0.000000
									CHANNELS 3 Zrotation Yrotation Xrotation
									JOINT LeftHandIndex1
									{
										OFFSET 0.715260 -0.000000 -0.000000
										CHANNELS 3 Zrotation Yrotation Xrotation
										End Site
										{
											OFFSET 0.000000 0.000000 0.000000
										}
									}
								}
								JOINT LThumb
								{
									OFFSET 0.000000 0.000000 0.000000
									CHANNELS 3 Zrotation Yrotation Xrotation
									End Site
									{
										OFFSET 0.000000 0.000000 0.000000
									}
								}
							}
						}
					}
				}
				JOINT RightShoulder
				{
					OFFSET 0.000000 0.000000 0.000000
					CHANNELS 3 Zrotation Yrotation Xrotation
					JOINT RightArm
					{
						OFFSET -3.136600 1.374050 -0.404650
						CHANNELS 3 Zrotation Yrotation Xrotation
						JOINT RightForeArm
						{
							OFFSET -5.241900 -0.000000 -0.000000
							CHANNELS 3 Zrotation Yrotation Xrotation
							JOINT RightHand
							{
								OFFSET -3.444170 -0.000000 -0.000000
								CHANNELS 3 Zrotation Yrotation Xrotation
								JOINT RightFingerBase
								{
									OFFSET 0.000000 0.000000 0.000000
									CHANNELS 3 Zrotation Yrotation Xrotation
									JOINT RightHandIndex1
									{
										OFFSET -0.622530 -0.000000 -0.000000
										CHANNELS 3 Zrotation Yrotation Xrotation
										End Site
										{
											OFFSET 0.000000 0.000000 0.000000
										}
									}
								}
								JOINT RThumb
								{
									OFFSET 0.000000 0.000000 0.000000
									CHANNELS 3 Zrotation Yrotation Xrotation
									End Site
									{
										OFFSET 0.000000 0.000000 0.000000
									}
								}
							}
						}
					}
				}
			}
		}
	}
}
MOTION
Frames: 8
Frame Time: 0.008333
-11.507224 16.654488 -0.172951 56.563924 86.579032 65.702669 -11.762160 5.013811 0.519694 -6.577654 6.823425 6.205720 -1.245782 1.610760 23.692787 0.213469 -0.911511 5.464643 -0.150400 -0.000000 -82.504300 8.506407 -0.187011 3.462591 4.144039 4.687585 -39.365183 1.302749 -1.547374 27.961369 -0.526301 -2.043455 0.962281 -0.802300 -0.000000 -29.199700 3.931524 -6.471022 -4.739453 0.795196 -6.833210 -3.585791 -4.472410 -6.928375 0.943027 9.456963 -19.265147 -10.340482 -1.904578 -0.106390 -0.632245 0.000000 0.000000 0.000000 5.906330 0.716513 0.060251 -23.535999 -23.400806 -13.815626 -0.314920 -75.667640 -0.106976 10.531483 -2.659565 -0.303707 -0.084713 0.617294 -0.000000 0.000000 0.000000 0.000000 0.000000 0.000000 0.000000 11.039463 -18.862559 2.252423 50.319457 -23.301862 -27.129572 3.776785 26.225153 0.001596 -2.174391 1.071155 -0.022846 0.171725 -0.061214 -0.000000 0.000000 0.000000 0.000000 0.000000 0.000000 0.000000 
-11.332675 16.631996 -0.149591 48.585728 86.672119 57.576804 -11.957685 5.171646 0.520618 -5.759943 7.264082 5.570903 -1.104709 1.791143 25.678369 0.229868 -1.529236 6.915216 -0.345100 -0.000001 -84.634300 8.449166 -0.148732 3.378570 4.774000 4.868070 -39.492496 1.237456 -1.668342 30.105928 -0.585673 -2.170303 -0.191292 -0.744401 0.000000 -28.828200 4.380940 -6.343743 -4.713221 0.857740 -6.740330 -3.595092 -4.601275 -6.831333 0.926876 9.578078 -19.117107 -10.341889 -2.039635 -0.118143 -0.632845 0.000000 0.000000 0.000000 5.662233 0.781194 0.088290 -25.037184 -22.477823 -13.352542 -0.371071 -76.086694 -0.105087 10.575551 -2.733238 -0.310895 -0.089241 0.607456 -0.000000 0.000000 0.000000 0.000000 0.000000 0.000000 0.000000 11.607826 -18.677878 2.201938 50.202401 -22.418728 -26.312635 3.783905 26.121706 0.001144 -2.511215 0.994044 -0.024248 0.170297 -0.057331 -0.000000 0.000000 0.000000 0.000000 0.000000 0.000000 0.000000 
-11.161822 16.608046 -0.127225 37.330207 86.760173 46.166902 -12.077843 5.351244 0.484382 -4.822681 7.793733 4.806745 -0.979946 1.993987 27.872325 0.263865 -2.219166 8.417722 -0.598700 0.000001 -85.931500 8.472290 -0.047012 3.280543 5.492178 5.088256 -39.490006 1.178840 -1.762646 32.132901 -0.651345 -2.314775 -1.477061 -0.673700 0.000000 -28.371000 4.971546 -6.189364 -4.625660 0.942408 -6.628996 -3.597054 -4.744232 -6.714160 0.900155 9.725720 -18.933051 -10.355621 -2.177316 -0.129848 -0.637949 0.000000 0.000000 0.000000 5.447796 0.858552 0.115288 -26.648309 -21.530263 -12.892606 -0.429562 -76.431259 -0.103432 10.657631 -2.784137 -0.317190 -0.094073 0.596696 -0.000000 0.000000 0.000000 0.000000 0.000000 0.000000 0.000000 12.196766 -18.441531 2.163973 50.159017 -21.446457 -25.559183 3.788962 25.987687 0.000769 -2.823924 0.928642 -0.025351 0.168384 -0.053934 -0.000000 0.000000 0.000000 0.000000 0.000000 0.000000 0.000000 
-10.995233 16.582200 -0.105404 20.852048 86.939081 29.526512 -11.963207 5.516489 0.398734 -3.721222 8.354828 3.944587 -0.866421 2.212399 30.282315 0.317349 -2.885806 9.918801 -0.888100 0.000000 -86.279400 8.696103 0.109108 3.185861 6.341261 5.298828 -39.359348 1.139136 -1.855443 34.002532 -0.726511 -2.476573 -2.870295 -0.585800 -0.000000 -27.894100 5.854650 -6.031496 -4.473069 1.080121 -6.534511 -3.592482 -4.907639 -6.610763 0.857830 9.901950 -18.718637 -10.380317 -2.317778 -0.141607 -0.646904 0.000000 0.000000 0.000000 5.268515 0.914485 0.143354 -28.362959 -20.562749 -12.444130 -0.491379 -76.689137 -0.102108 10.782507 -2.811573 -0.322496 -0.098920 0.585297 -0.000000 0.000000 0.000000 0.000000 0.000000 0.000000 0.000000 12.807369 -18.175660 2.137610 50.191079 -20.398268 -24.877159 3.792342 25.822622 0.000467 -3.115172 0.881751 -0.026355 0.166134 -0.051127 -0.000000 0.000000 0.000000 0.000000 0.000000 0.000000 0.000000 
-10.833286 16.554085 -0.083949 -4.328236 87.703779 4.137794 -11.519942 5.393299 0.248472 -2.365276 8.773055 3.062979 -0.641536 2.337531 32.997352 0.371445 -3.461137 11.366527 -1.174801 0.000000 -85.636300 9.117580 0.030993 3.158818 7.311334 5.300304 -39.167472 1.184413 -2.062584 35.627003 -0.831904 -2.708027 -4.376419 -0.480300 0.000000 -27.424600 7.082653 -6.068221 -4.289678 1.299715 -6.662990 -3.587062 -5.082264 -6.730238 0.794696 10.098716 -18.480097 -10.407210 -2.464049 -0.153986 -0.656301 0.000000 0.000000 0.000000 5.121339 0.823642 0.194507 -30.159533 -19.621769 -12.006096 -0.557060 -76.826445 -0.101295 10.953879 -2.816655 -0.327084 -0.104277 0.574553 -0.000000 0.000000 0.000000 0.000000 0.000000 0.000000 0.000000 13.446825 -17.989876 2.104318 50.303519 -19.320492 -24.285917 3.790403 25.629149 0.000257 -3.385784 0.860673 -0.027863 0.163420 -0.048608 -0.000000 0.000000 0.000000 0.000000 0.000000 0.000000 0.000000 
-10.676199 16.523425 -0.062341 -37.633730 89.065188 -29.477026 -11.688900 4.823113 0.122502 -1.154049 8.972774 2.160212 -0.191274 2.253492 35.983293 0.432538 -3.797589 12.729100 -1.402400 -0.000000 -84.009701 8.913835 -0.608720 3.126645 8.026475 4.892902 -38.980757 1.330421 -2.376389 37.094152 -0.948213 -2.925875 -5.991555 -0.358500 0.000000 -26.995400 7.505180 -6.430952 -4.124099 1.399975 -7.063406 -3.572460 -5.207793 -7.138456 0.726194 10.331110 -18.212544 -10.418683 -2.613224 -0.166601 -0.661902 0.000000 0.000000 0.000000 5.020503 0.526144 0.281093 -31.964463 -18.723329 -11.566363 -0.614347 -76.817202 -0.100854 11.169182 -2.802851 -0.331235 -0.111809 0.564609 -0.000000 0.000000 0.000000 0.000000 0.000000 0.000000 0.000000 14.140915 -17.928251 2.051234 50.527648 -18.238824 -23.800503 3.769094 25.421417 0.000167 -3.641770 0.872508 -0.030176 0.159033 -0.045677 -0.000000 0.000000 0.000000 0.000000 0.000000 0.000000 0.000000 
-10.523960 16.490179 -0.040537 -68.236813 89.722126 -60.371768 -12.463294 4.539522 0.056634 -0.279521 9.322197 1.066125 0.131556 2.272963 38.975692 0.552608 -3.683608 13.887866 -1.511400 0.000000 -81.467400 8.276540 -0.999116 2.935600 8.590533 4.534002 -38.636068 1.399607 -2.506252 38.582340 -1.021331 -2.990907 -7.574254 -0.225300 -0.000000 -26.612000 7.230428 -6.596948 -3.880152 1.339950 -7.208026 -3.539108 -5.323503 -7.294880 0.661165 10.614258 -17.909405 -10.432119 -2.756081 -0.177980 -0.670802 0.000000 0.000000 0.000000 4.939271 0.319014 0.344962 -33.752938 -17.798611 -11.142604 -0.662980 -76.692452 -0.100459 11.428440 -2.780576 -0.335533 -0.119092 0.552535 -0.000000 0.000000 0.000000 0.000000 0.000000 0.000000 0.000000 14.858578 -17.722067 2.029155 50.866500 -17.069028 -23.422191 3.739210 25.183688 0.000156 -3.887724 0.922366 -0.033783 0.153679 -0.043526 -0.000000 0.000000 0.000000 0.000000 0.000000 0.000000 0.000000 
-10.376487 16.454437 -0.018174 -88.807327 89.786830 -81.209625 -13.052071 4.481962 -0.027308 0.576138 9.730175 -0.149294 0.314789 2.420335 42.023048 0.707073 -3.082595 14.744751 -1.445800 0.000000 -78.103700 7.856177 -1.081005 2.679851 9.263893 4.235361 -38.159835 1.417832 -2.537504 39.986598 -1.079496 -3.000836 -9.095090 -0.085000 -0.000000 -26.287900 7.160829 -6.585274 -3.560671 1.287284 -7.182583 -3.501179 -5.472636 -7.272520 0.581175 10.932621 -17.578396 -10.446445 -2.898336 -0.189100 -0.681037 0.000000 0.000000 0.000000 4.860191 0.165046 0.392916 -35.545648 -16.880238 -10.742514 -0.712896 -76.430049 -0.100202 11.725422 -2.757365 -0.340578 -0.124849 0.539091 -0.000000 0.000000 0.000000 0.000000 0.000000 0.000000 0.000000 15.592734 -17.407620 2.031513 51.292744 -15.838818 -23.145885 3.709952 24.905436 0.000192 -4.132989 1.014107 -0.039188 0.148314 -0.042395 -0.000000 0.000000 0.000000 0.000000 0.000000 0.000000 0.000000 
